<svg width="66" height="66" viewBox="0 0 66 66" fill="none" xmlns="http://www.w3.org/2000/svg">
<circle cx="33" cy="33" r="33" fill="#283454"/>
<path d="M43.4889 24.418C43.4889 20.9128 40.636 18 37.1301 18C35.764 18 34.4874 18.5845 33.4966 19.6363C32.5056 18.5845 31.2291 18 29.863 18C26.3571 18 23.5042 20.9128 23.5042 24.418C23.5042 27.9435 26.0918 29.7634 29.0885 31.8716C30.3243 32.7407 31.6026 33.6401 32.9013 34.7665L33.4956 35.2827L34.0909 34.7674C35.559 33.4973 36.9554 32.5031 38.1867 31.6259C41.1487 29.5178 43.4889 27.8521 43.4889 24.418ZM36.2217 27.1426H34.405V28.959H32.5882V27.1426H30.7714V25.3262H32.5882V23.5098H34.405V25.3262H36.2217V27.1426Z" fill="white"/>
<path d="M47.9098 26.307C46.0566 26.307 45.5782 34.9167 45.5418 35.0984C45.3573 36.36 44.4684 38.2275 42.9673 39.352L39.0326 42.2082L37.9433 40.7536L41.8779 37.8983C43.4365 36.73 44.1469 34.7351 42.1989 34.7351C40.4543 34.7351 37.1932 36.7545 36.2265 37.5556C35.072 38.5123 34.4049 39.9337 34.4049 41.4328V49H39.8553C39.8553 48.1281 40.3276 47.1775 41.0543 46.2693C41.8174 45.2703 42.9075 44.2531 44.0338 43.2177C46.1777 41.2015 48.4002 39.1308 48.6909 37.0238C48.8635 35.6085 49.0069 33.181 48.9997 31.0176C48.9919 28.5948 48.7866 26.3853 47.9098 26.307Z" fill="white"/>
<path d="M30.5533 37.3871C27.9916 35.6251 26.0478 34.7351 24.7942 34.7351C22.8462 34.7351 23.5566 36.73 25.1152 37.8983L29.0498 40.7536L27.9605 42.2082L24.0258 39.352C22.5246 38.2275 21.6357 36.36 21.4511 35.0984C21.4148 34.9167 20.9364 26.307 19.0832 26.307C18.0658 26.3978 17.9568 29.3585 18.0114 32.1921C18.0477 34.2628 18.2112 36.279 18.302 37.0238C18.5927 39.1308 20.8153 41.2016 22.9591 43.2177C24.0855 44.2531 25.1755 45.2703 25.9386 46.2693C26.6653 47.1775 27.1377 48.1281 27.1377 49H32.588V41.4691C32.5882 39.8645 31.8347 38.3531 30.5533 37.3871Z" fill="white"/>
</svg>
