<svg width="66" height="66" viewBox="0 0 66 66" fill="none" xmlns="http://www.w3.org/2000/svg">
<circle cx="33" cy="33" r="33" fill="#283454"/>
<path d="M33.4918 23.3911C27.1706 17.8978 19.1334 22.7244 19.0016 29.2677C18.968 30.9352 19.4525 32.5596 20.4169 34.0571H26.6675L27.7792 32.2159C28.1021 31.6814 28.8833 31.6641 29.2244 32.197L31.5701 35.8595L34.9894 28.6874C35.2876 28.0615 36.1763 28.0417 36.5052 28.6485L39.4362 34.0571H46.5666C51.8487 25.8546 41.4096 16.5103 33.4918 23.3911Z" fill="white"/>
<path d="M38.1808 35.3013L35.8057 30.9187L32.4472 37.9636C32.1614 38.563 31.321 38.615 30.9627 38.0554L28.529 34.2557L27.8769 35.3354C27.7234 35.5897 27.4469 35.7452 27.1485 35.7452H21.7608C21.9297 35.9209 21.0296 35.0283 32.8925 46.7543C33.2239 47.0819 33.7595 47.0819 34.0909 46.7543C45.7713 35.2087 45.0541 35.9205 45.2226 35.7452H38.9288C38.6163 35.7453 38.329 35.5748 38.1808 35.3013Z" fill="white"/>
</svg>
