<svg width="66" height="66" viewBox="0 0 66 66" fill="none" xmlns="http://www.w3.org/2000/svg">
<circle cx="33" cy="33" r="33" fill="#283454"/>
<path d="M33.4999 15C29.8831 15 26.9414 17.8929 26.9414 21.4487V24.7896C26.9414 28.3456 29.8831 31.2385 33.4999 31.2385C37.1169 31.2385 40.0584 28.3456 40.0584 24.7896V21.4487C40.0584 17.8929 37.1169 15 33.4999 15Z" fill="white"/>
<path d="M47.9638 39.6418C45.8636 36.1233 42.5068 33.5147 38.5117 32.2966C38.419 32.2684 38.3189 32.2924 38.2498 32.3594C36.3914 34.161 34.0821 35.5665 33.5047 35.906C32.8885 35.5187 30.2926 33.8553 28.7494 32.3594C28.6807 32.2924 28.5797 32.2684 28.4876 32.2966C24.4919 33.515 21.1354 36.1235 19.036 39.6421C18.988 39.7226 18.988 39.8227 19.036 39.9032C22.0172 44.8975 27.5593 48 33.4996 48C39.4402 48 44.9826 44.8975 47.9638 39.9032C48.0121 39.8224 48.0121 39.7223 47.9638 39.6418ZM42.4198 41.5653C42.4198 41.7076 42.282 41.8164 42.1376 41.8164H40.3613C40.2165 41.8164 40.0586 41.9386 40.0586 42.0812V43.8872C40.0586 44.0292 39.9813 44.1377 39.8366 44.1377H38.2413C38.0965 44.1377 37.9601 44.0292 37.9601 43.8872V42.0812C37.9596 41.9389 37.8608 41.8164 37.716 41.8164H35.8632C35.7185 41.8164 35.5987 41.7073 35.5987 41.5653V40.0104C35.5987 39.8681 35.7185 39.7532 35.8632 39.7532H37.716C37.8608 39.7532 37.9596 39.6371 37.9596 39.4945V37.6864C37.9596 37.5441 38.096 37.4319 38.2407 37.4319H39.8188C39.9633 37.4319 40.0584 37.5441 40.0584 37.6864V39.4998C40.0584 39.6424 40.1985 39.753 40.3435 39.753H42.1376C42.282 39.753 42.4198 39.8734 42.4198 40.0156V41.5653Z" fill="white"/>
</svg>
